0
SECTION
2
HEADER
0
ENDSEC
0
SECTION
2
TABLES
0
TABLE
2
LAYER
70
1
0
LAYER
2
CUT
70
0
62
7
6
CONTINUOUS
0
ENDTAB
0
ENDSEC
0
SECTION
2
ENTITIES
0
CIRCLE
8
CUT
10
0
20
0
30
0
40
16
0
CIRCLE
8
CUT
10
0
20
55
30
0
40
5
0
CIRCLE
8
CUT
10
0
20
-33
30
0
40
4
0
CIRCLE
8
CUT
10
16.5
20
-28.5788383249
30
0
40
4
0
CIRCLE
8
CUT
10
28.5788383249
20
-16.5
30
0
40
4
0
CIRCLE
8
CUT
10
33
20
0
30
0
40
4
0
CIRCLE
8
CUT
10
28.5788383249
20
16.5
30
0
40
4
0
CIRCLE
8
CUT
10
16.5
20
28.5788383249
30
0
40
4
0
CIRCLE
8
CUT
10
0
20
33
30
0
40
4
0
CIRCLE
8
CUT
10
-16.5
20
28.5788383249
30
0
40
4
0
CIRCLE
8
CUT
10
-28.5788383249
20
16.5
30
0
40
4
0
CIRCLE
8
CUT
10
-33
20
0
30
0
40
4
0
CIRCLE
8
CUT
10
-28.5788383249
20
-16.5
30
0
40
4
0
CIRCLE
8
CUT
10
-16.5
20
-28.5788383249
30
0
40
4
0
CIRCLE
8
CUT
10
0
20
-76
30
0
40
6
0
CIRCLE
8
CUT
10
38
20
-65.8179306876
30
0
40
6
0
CIRCLE
8
CUT
10
-38
20
-65.8179306876
30
0
40
6
0
LWPOLYLINE
8
CUT
90
16
70
1
10
0
20
78
10
20
20
72
10
32
20
60
10
40
20
40
10
46
20
20
10
50
20
0
10
48
20
-25
10
60
20
-45
10
55
20
-70
10
40
20
-92
10
20
20
-88
10
0
20
-78
10
-20
20
-88
10
-40
20
-92
10
-55
20
-70
10
-60
20
-45
10
-48
20
-25
10
-50
20
0
10
-46
20
20
10
-40
20
40
10
-32
20
60
10
-20
20
72
0
ENDSEC
0
EOF
